<?xml version="1.0" encoding="UTF-8" standalone="no"?>
<!-- Created with Inkscape (http://www.inkscape.org/) -->

<svg
   width="45.242805mm"
   height="33.815071mm"
   viewBox="0 0 45.242805 33.815071"
   version="1.1"
   id="svg1"
   xmlns:inkscape="http://www.inkscape.org/namespaces/inkscape"
   xmlns:sodipodi="http://sodipodi.sourceforge.net/DTD/sodipodi-0.dtd"
   xmlns:xlink="http://www.w3.org/1999/xlink"
   xmlns="http://www.w3.org/2000/svg"
   xmlns:svg="http://www.w3.org/2000/svg">
  <sodipodi:namedview
     id="namedview1"
     pagecolor="#505050"
     bordercolor="#ffffff"
     borderopacity="1"
     inkscape:showpageshadow="0"
     inkscape:pageopacity="0"
     inkscape:pagecheckerboard="1"
     inkscape:deskcolor="#505050"
     inkscape:document-units="mm"
     showguides="true">
    <inkscape:page
       x="0"
       y="0"
       width="45.242805"
       height="33.815071"
       id="page2"
       margin="0"
       bleed="0" />
  </sodipodi:namedview>
  <defs
     id="defs1">
    <linearGradient
       id="linearGradient36"
       inkscape:collect="always">
      <stop
         style="stop-color:#5c3f32;stop-opacity:1;"
         offset="0"
         id="stop36" />
      <stop
         style="stop-color:#614c34;stop-opacity:1;"
         offset="1"
         id="stop37" />
    </linearGradient>
    <linearGradient
       id="linearGradient35"
       inkscape:collect="always">
      <stop
         style="stop-color:#5c3f32;stop-opacity:1;"
         offset="0"
         id="stop35" />
      <stop
         style="stop-color:#6c4e29;stop-opacity:1;"
         offset="1"
         id="stop34" />
    </linearGradient>
    <linearGradient
       id="linearGradient30"
       inkscape:collect="always">
      <stop
         style="stop-color:#9f854e;stop-opacity:1;"
         offset="0"
         id="stop30" />
      <stop
         style="stop-color:#ccb4a0;stop-opacity:1;"
         offset="1"
         id="stop31" />
    </linearGradient>
    <linearGradient
       id="linearGradient24"
       inkscape:collect="always">
      <stop
         style="stop-color:#c5b3a7;stop-opacity:1;"
         offset="0"
         id="stop24" />
      <stop
         style="stop-color:#a47e36;stop-opacity:1;"
         offset="1"
         id="stop23" />
    </linearGradient>
    <linearGradient
       id="linearGradient18"
       inkscape:collect="always">
      <stop
         style="stop-color:#9d7e3d;stop-opacity:1;"
         offset="0"
         id="stop18" />
      <stop
         style="stop-color:#cab4a2;stop-opacity:1;"
         offset="1"
         id="stop19" />
    </linearGradient>
    <inkscape:path-effect
       effect="bspline"
       id="path-effect18"
       is_visible="true"
       lpeversion="1.3"
       weight="33.333333"
       steps="2"
       helper_size="0"
       apply_no_weight="true"
       apply_with_weight="true"
       only_selected="false"
       uniform="false" />
    <inkscape:path-effect
       effect="bspline"
       id="path-effect16"
       is_visible="true"
       lpeversion="1.3"
       weight="33.333333"
       steps="2"
       helper_size="0"
       apply_no_weight="true"
       apply_with_weight="true"
       only_selected="false"
       uniform="false" />
    <inkscape:path-effect
       effect="bspline"
       id="path-effect14"
       is_visible="true"
       lpeversion="1.3"
       weight="33.333333"
       steps="2"
       helper_size="0"
       apply_no_weight="true"
       apply_with_weight="true"
       only_selected="false"
       uniform="false" />
    <linearGradient
       inkscape:collect="always"
       xlink:href="#linearGradient35"
       id="linearGradient14"
       x1="120.18629"
       y1="158.33606"
       x2="177.38364"
       y2="186.42825"
       gradientUnits="userSpaceOnUse"
       gradientTransform="matrix(1,0,0,1.0099324,0,-1.9485099)" />
    <linearGradient
       inkscape:collect="always"
       xlink:href="#linearGradient18"
       id="linearGradient19"
       x1="119.84535"
       y1="158.21606"
       x2="181.88054"
       y2="206.01283"
       gradientUnits="userSpaceOnUse"
       gradientTransform="matrix(1,0,0,0.74996501,0,51.510417)" />
    <linearGradient
       inkscape:collect="always"
       xlink:href="#linearGradient24"
       id="linearGradient23"
       gradientUnits="userSpaceOnUse"
       x1="86.059174"
       y1="206.82997"
       x2="24.023983"
       y2="96.998253"
       gradientTransform="matrix(1,-0.74996501,0,0.74996501,95.821367,115.43877)" />
    <linearGradient
       inkscape:collect="always"
       xlink:href="#linearGradient30"
       id="linearGradient31"
       x1="119.84535"
       y1="158.21606"
       x2="181.77444"
       y2="186.33144"
       gradientUnits="userSpaceOnUse"
       gradientTransform="matrix(1,0,0,0.74997401,0,51.508744)" />
    <linearGradient
       inkscape:collect="always"
       xlink:href="#linearGradient36"
       id="linearGradient37"
       x1="120.18629"
       y1="157.96021"
       x2="177.38364"
       y2="186.33144"
       gradientUnits="userSpaceOnUse"
       gradientTransform="matrix(0.92940247,0,0,1,12.513179,0)" />
    <filter
       style="color-interpolation-filters:sRGB"
       inkscape:label="Fade to Black or White"
       id="filter133"
       x="0"
       y="0"
       width="1"
       height="1">
      <feColorMatrix
         values="0.817649 0 0 0 0 0 0.817649 0 0 0 0 0 0.817649 0 0 0 0 0 1 0"
         id="feColorMatrix133" />
    </filter>
  </defs>
  <g
     inkscape:label="Layer 1"
     inkscape:groupmode="layer"
     id="layer1"
     transform="translate(-82.378594,-169.97479)">
    <g
       id="g130"
       style="filter:url(#filter133)"
       inkscape:export-filename="logo.svg"
       inkscape:export-xdpi="96"
       inkscape:export-ydpi="96"
       transform="matrix(0.35450771,0,0,0.35450771,53.174749,109.71742)">
      <rect
         style="fill:url(#linearGradient14);stroke-width:8.58493;stroke-linecap:round;stroke-linejoin:round;stroke-miterlimit:2.7"
         id="rect1"
         width="90.15464"
         height="69.184464"
         x="87.092789"
         y="196.17636" />
      <path
         style="font-variation-settings:normal;opacity:1;vector-effect:none;fill:url(#linearGradient37);stroke:none;stroke-width:0.96406;stroke-linecap:butt;stroke-linejoin:miter;stroke-miterlimit:4;stroke-dasharray:none;stroke-dashoffset:0;stroke-opacity:1;-inkscape-stroke:none;stop-color:#000000;stop-opacity:1"
         d="m 177.24743,265.36081 30.44004,-22.859 3.7e-4,-64.09416 -30.31381,7.92378 z"
         id="path34"
         sodipodi:nodetypes="ccccc" />
      <path
         id="path22"
         style="fill:url(#linearGradient23);fill-opacity:1;stroke:none;stroke-width:0.866005;stroke-linecap:round;stroke-linejoin:round;stroke-miterlimit:2.7;stroke-dasharray:none;stroke-opacity:1"
         d="m 210.0001,169.97479 -28.11973,21.27755 h -0.003 l 0.003,14.76043 28.11973,-21.27949 z" />
      <path
         id="rect1-5"
         style="fill:url(#linearGradient19);fill-opacity:1;stroke:none;stroke-width:0.866005;stroke-linecap:round;stroke-linejoin:round;stroke-miterlimit:2.7;stroke-dasharray:none;stroke-opacity:1"
         d="m 82.378596,191.25247 v 0 14.76036 0 h 99.501944 v 0 -14.76036 0 z"
         sodipodi:nodetypes="ccccccccc" />
      <path
         style="font-variation-settings:normal;vector-effect:none;fill:url(#linearGradient31);fill-opacity:1;stroke:none;stroke-width:0.866014;stroke-linecap:butt;stroke-linejoin:miter;stroke-miterlimit:4;stroke-dasharray:none;stroke-dashoffset:0;stroke-opacity:1;-inkscape-stroke:none;stop-color:#000000"
         d="m 82.378596,191.25267 99.501944,-2e-4 28.11956,-21.27768 h -89.81381 z"
         id="path30" />
    </g>
    <g
       id="g18"
       transform="matrix(0.35450771,0,0,0.35450771,53.174749,117.55679)"
       style="stroke:#ffffff;stroke-dasharray:4, 2;stroke-dashoffset:0;stroke-opacity:1">
      <path
         style="font-variation-settings:normal;opacity:1;fill:none;fill-opacity:1;stroke:#ffffff;stroke-width:2.26723;stroke-linecap:butt;stroke-linejoin:miter;stroke-miterlimit:4;stroke-dasharray:4.53445, 2.26723;stroke-dashoffset:0;stroke-opacity:1;stop-color:#000000;stop-opacity:1"
         d="m 87.092789,213.30928 c 30.051541,0 60.103091,0 90.154641,0"
         id="path14"
         inkscape:path-effect="#path-effect14"
         inkscape:original-d="m 87.092789,213.30928 c 30.051541,0 60.103091,0 90.154641,0"
         transform="matrix(0.77816293,0,0,1,29.320229,0)" />
      <path
         style="font-variation-settings:normal;opacity:1;fill:none;fill-opacity:1;stroke:#ffffff;stroke-width:2.26723;stroke-linecap:butt;stroke-linejoin:miter;stroke-miterlimit:4;stroke-dasharray:4.53445, 2.26723;stroke-dashoffset:0;stroke-opacity:1;stop-color:#000000;stop-opacity:1"
         d="m 87.092789,213.30928 c 30.051541,0 60.103091,0 90.154641,0"
         id="path15"
         inkscape:path-effect="#path-effect16"
         inkscape:original-d="m 87.092789,213.30928 c 30.051541,0 60.103091,0 90.154641,0"
         transform="matrix(0.77816293,0,0,1,29.320229,8.5051546)" />
      <path
         style="font-variation-settings:normal;opacity:1;fill:none;fill-opacity:1;stroke:#ffffff;stroke-width:2.26723;stroke-linecap:butt;stroke-linejoin:miter;stroke-miterlimit:4;stroke-dasharray:4.53445, 2.26723;stroke-dashoffset:0;stroke-opacity:1;stop-color:#000000;stop-opacity:1"
         d="m 87.092789,213.30928 c 30.051541,0 60.103091,0 90.154641,0"
         id="path16"
         inkscape:path-effect="#path-effect18"
         inkscape:original-d="m 87.092789,213.30928 c 30.051541,0 60.103091,0 90.154641,0"
         transform="matrix(0.77816293,0,0,1,29.320229,17.010309)" />
    </g>
    <path
       d="m 96.11612,190.44625 -0.333168,-1.45873 h -2.143069 l -0.324163,1.45873 h -0.756377 q 0.153076,-0.5943 0.34217,-1.28764 0.189095,-0.69335 0.405203,-1.42271 0.225112,-0.72937 0.468234,-1.45873 0.243121,-0.73837 0.513256,-1.4047 h 0.918455 q 0.261132,0.66633 0.49525,1.4047 0.243123,0.72936 0.450227,1.45873 0.216109,0.72936 0.405198,1.42271 0.189095,0.69334 0.342173,1.28764 z m -1.395697,-4.92546 q -0.207105,0.56728 -0.450226,1.31465 -0.243121,0.74738 -0.459229,1.53977 h 1.800898 q -0.207105,-0.8104 -0.450227,-1.55778 -0.234112,-0.75637 -0.441216,-1.29664 z m 7.079037,1.05353 q 0,0.51325 -0.27014,0.90945 -0.27013,0.3872 -0.72937,0.6033 0.13507,0.21611 0.29715,0.49525 0.17109,0.27013 0.34218,0.58529 0.17108,0.30615 0.33316,0.63932 0.17108,0.32416 0.31516,0.63932 h -0.7924 q -0.27013,-0.64833 -0.5943,-1.24262 -0.31515,-0.5943 -0.6123,-0.96348 -0.054,0.009 -0.16208,0.009 -0.09905,0 -0.135068,0 h -0.630311 v 2.19711 h -0.747377 v -5.49275 q 0.135068,-0.036 0.306154,-0.0631 0.180091,-0.027 0.360182,-0.036 0.189095,-0.018 0.369179,-0.027 0.180091,-0.009 0.324164,-0.009 1.008497,0 1.512757,0.44123 0.51326,0.44121 0.51326,1.31465 z m -1.962985,-1.11656 q -0.207105,0 -0.405205,0.009 -0.189088,0 -0.270129,0.018 v 2.15208 h 0.477234 q 0.324163,0 0.576295,-0.045 0.26113,-0.045 0.44121,-0.16209 0.1891,-0.12606 0.28815,-0.33316 0.0991,-0.21611 0.0991,-0.55828 0,-0.32416 -0.0991,-0.53127 -0.099,-0.2071 -0.26114,-0.32416 -0.16207,-0.12606 -0.38718,-0.17109 -0.21611,-0.054 -0.459235,-0.054 z m 7.664325,4.75437 q -0.31515,0.18009 -0.67534,0.26114 -0.35117,0.09 -0.75638,0.09 -0.49524,0 -0.91845,-0.17109 -0.41421,-0.18009 -0.72036,-0.53126 -0.30615,-0.36019 -0.48625,-0.90946 -0.17108,-0.54927 -0.17108,-1.29664 0,-0.71136 0.18009,-1.25163 0.18909,-0.54027 0.50425,-0.90946 0.31516,-0.36918 0.73837,-0.55827 0.42321,-0.1891 0.90045,-0.1891 0.33316,0 0.67534,0.0901 0.35117,0.09 0.68434,0.29715 l -0.21611,0.6123 q -0.5943,-0.34217 -1.11656,-0.34217 -0.36918,0 -0.66633,0.16208 -0.28814,0.15308 -0.49525,0.45023 -0.2071,0.29715 -0.32416,0.71135 -0.10805,0.41421 -0.10805,0.92747 0,0.57628 0.11706,0.99949 0.12606,0.42322 0.34216,0.70235 0.21611,0.27914 0.51326,0.41421 0.30616,0.13507 0.65733,0.13507 0.26113,0 0.54928,-0.0631 0.28814,-0.072 0.59429,-0.24312 z"
       id="text18"
       style="-inkscape-font-specification:'UbuntuMono Nerd Font Mono';fill:#ffffff;fill-opacity:1;stroke:#ffffff;stroke-width:0.709013;stroke-linecap:round;stroke-linejoin:round;stroke-miterlimit:2.7;stroke-dasharray:none;stroke-dashoffset:0;stroke-opacity:1"
       aria-label="ARC" />
  </g>
</svg>
